<svg width="75" height="75" viewBox="0 0 75 75" fill="none" xmlns="http://www.w3.org/2000/svg">
<mask id="mask0_0_511" style="mask-type:luminance" maskUnits="userSpaceOnUse" x="0" y="-1" width="76" height="76">
<path fill-rule="evenodd" clip-rule="evenodd" d="M0 -0.000976562H75.0005V74.9995H0V-0.000976562Z" fill="white"/>
</mask>
<g mask="url(#mask0_0_511)">
<path fill-rule="evenodd" clip-rule="evenodd" d="M72.5425 74.999H12.8116C5.74809 74.999 0 69.252 0 62.1874V2.45655C0 1.09992 1.10138 -0.00146484 2.45801 -0.00146484C3.81564 -0.00146484 4.91602 1.09992 4.91602 2.45655V62.1874C4.91602 66.5417 8.45833 70.083 12.8116 70.083H72.5425C73.9001 70.083 75.0005 71.1834 75.0005 72.541C75.0005 73.8987 73.9001 74.9991 72.5425 74.9991" fill="#0A0708"/>
<path fill-rule="evenodd" clip-rule="evenodd" d="M62.7482 62.3533C61.484 62.3533 60.458 61.3282 60.458 60.0631V33.1666C60.458 31.9025 61.484 30.8774 62.7482 30.8774C64.0124 30.8774 65.0384 31.9025 65.0384 33.1666V60.0631C65.0384 61.3282 64.0124 62.3533 62.7482 62.3533Z" fill="#0A0708"/>
<path fill-rule="evenodd" clip-rule="evenodd" d="M50.9202 62.3528C49.656 62.3528 48.63 61.3278 48.63 60.0627V39.0138C48.63 37.7496 49.656 36.7246 50.9202 36.7246C52.1844 36.7246 53.2104 37.7496 53.2104 39.0138V60.0627C53.2104 61.3278 52.1844 62.3528 50.9202 62.3528Z" fill="#0A0708"/>
<path fill-rule="evenodd" clip-rule="evenodd" d="M39.0912 62.3528C37.827 62.3528 36.801 61.3278 36.801 60.0626V47.8097C36.801 46.5455 37.827 45.5195 39.0912 45.5195C40.3554 45.5195 41.3814 46.5455 41.3814 47.8097V60.0626C41.3814 61.3278 40.3554 62.3528 39.0912 62.3528Z" fill="#0A0708"/>
<path fill-rule="evenodd" clip-rule="evenodd" d="M27.2622 62.3536C25.9981 62.3536 24.972 61.3286 24.972 60.0634V42.5529C24.972 41.2887 25.9981 40.2637 27.2622 40.2637C28.5264 40.2637 29.5524 41.2887 29.5524 42.5529V60.0634C29.5524 61.3286 28.5264 62.3536 27.2622 62.3536Z" fill="#0A0708"/>
<path fill-rule="evenodd" clip-rule="evenodd" d="M15.4342 62.3532C14.1701 62.3532 13.144 61.3282 13.144 60.0631V50.3375C13.144 49.0733 14.1701 48.0483 15.4342 48.0483C16.6984 48.0483 17.7244 49.0733 17.7244 50.3375V60.0631C17.7244 61.3282 16.6984 62.3532 15.4342 62.3532Z" fill="#0A0708"/>
<path fill-rule="evenodd" clip-rule="evenodd" d="M64.2021 7.47436L55.5297 9.79771C53.8595 10.2459 53.3008 12.3331 54.5228 13.5551L55.9598 14.9921L44.6335 26.3164L36.1952 17.8782C35.2355 16.9185 33.6799 16.9185 32.7202 17.8782L13.7556 36.8419C12.7949 37.8016 12.7949 39.3572 13.7556 40.3179C14.2349 40.7972 14.864 41.0374 15.493 41.0374C16.1221 41.0374 16.7502 40.7972 17.2305 40.3179L34.4577 23.0917L42.896 31.5299C43.8566 32.4896 45.4112 32.4896 46.3719 31.5299L59.4348 18.4671L60.8718 19.9041C62.0938 21.1261 64.181 20.5673 64.6282 18.8972L66.9525 10.2248C67.3997 8.55464 65.8722 7.02717 64.2021 7.47436" fill="#0A0708"/>
</g>
<path fill-rule="evenodd" clip-rule="evenodd" d="M12.8115 75C5.74804 75 0 69.2519 0 62.1885V2.45654C0 1.10107 1.10205 -0.000976562 2.45728 -0.000976562C3.81592 -0.000976562 4.91626 1.10107 4.91626 2.45654V62.1885C4.91626 66.542 8.45837 70.084 12.8115 70.084H72.542C73.9006 70.084 75.0011 71.1841 75.0011 72.541C75.0011 73.8999 73.9006 75 72.542 75H12.8115ZM60.4584 60.064V33.1675C60.4584 31.9038 61.4842 30.8779 62.7493 30.8779C64.0126 30.8779 65.0384 31.9038 65.0384 33.1675V60.064C65.0384 61.3291 64.0126 62.353 62.7493 62.353C61.4842 62.353 60.4584 61.3291 60.4584 60.064ZM48.6294 60.0639V39.0161C48.6294 37.751 49.6553 36.7251 50.9203 36.7251C52.1836 36.7251 53.2095 37.751 53.2095 39.0161V60.0639C53.2095 61.3291 52.1836 62.353 50.9203 62.353C49.6553 62.353 48.6294 61.3291 48.6294 60.0639ZM36.8004 60.064V47.8105C36.8004 46.5474 37.8263 45.5195 39.0913 45.5195C40.3546 45.5195 41.3805 46.5473 41.3805 47.8105V60.064C41.3805 61.3291 40.3546 62.353 39.0913 62.353C37.8263 62.353 36.8004 61.3291 36.8004 60.064ZM24.9714 60.064V42.5527C24.9714 41.2876 25.999 40.2637 27.2623 40.2637C28.5256 40.2637 29.5515 41.2876 29.5515 42.5527V60.064C29.5515 61.3291 28.5256 62.353 27.2623 62.353C25.999 62.353 24.9714 61.3291 24.9714 60.064ZM13.1442 60.064V50.3369C13.1442 49.0737 14.1702 48.0498 15.4335 48.0498C16.6985 48.0498 17.7244 49.0737 17.7244 50.3369V60.064C17.7244 61.3291 16.6985 62.353 15.4335 62.353C14.1702 62.353 13.1442 61.3291 13.1442 60.064ZM13.756 40.3193C12.7942 39.3574 12.7942 37.8013 13.756 36.8428L32.7194 17.8779C33.6794 16.9194 35.2356 16.9194 36.1956 17.8779L44.6332 26.3169L55.9596 14.9922L54.5214 13.5542C53.3014 12.334 53.8594 10.2461 55.5299 9.79882L64.2014 7.47509C65.8719 7.02782 67.3987 8.55468 66.9515 10.2251L64.6277 18.8965C64.1807 20.5674 62.0942 21.127 60.8707 19.9033L59.4342 18.4668L46.3713 31.5298C45.4113 32.4898 43.8569 32.4898 42.8951 31.5298L34.4575 23.0923L17.2305 40.3193C16.7505 40.7974 16.1213 41.0366 15.4923 41.0366C14.8633 41.0366 14.2343 40.7974 13.756 40.3193V40.3193Z" fill="#222222"/>
</svg>
