<svg width="90" height="83" viewBox="0 0 90 83" fill="none" xmlns="http://www.w3.org/2000/svg">
<mask id="mask0_0_460" style="mask-type:luminance" maskUnits="userSpaceOnUse" x="0" y="0" width="90" height="84">
<path fill-rule="evenodd" clip-rule="evenodd" d="M0 0.000976562H89.9996V83.0005H0V0.000976562Z" fill="white"/>
</mask>
<g mask="url(#mask0_0_460)">
<path fill-rule="evenodd" clip-rule="evenodd" d="M78.7269 61.1973C77.4268 55.3914 66.91 54.5623 66.91 35.7387C66.91 25.1853 59.4864 16.3745 49.591 14.258V11.4691C49.591 8.92647 47.5352 6.86523 45.0002 6.86523C42.4642 6.86523 40.4084 8.92648 40.4084 11.4691V14.258C30.513 16.3745 23.0894 25.1853 23.0894 35.7387C23.0894 54.5623 12.5726 55.3914 11.2725 61.1973C10.184 66.0585 13.8336 70.0724 20.9634 70.0724H45.0002H69.036C76.1658 70.0724 79.8154 66.0584 78.7269 61.1973Z" stroke="#0A0708" stroke-width="5.0184"/>
<path d="M35.82 71.2837C35.82 76.367 39.9297 80.4884 45.0007 80.4884C50.0707 80.4884 54.1804 76.367 54.1804 71.2837" stroke="#0A0708" stroke-width="5.0184"/>
<path d="M11.955 31.9025C13.4215 23.0002 18.3772 15.2829 25.3687 10.2026" stroke="#0A0708" stroke-width="4.01472" stroke-linecap="round"/>
<path fill-rule="evenodd" clip-rule="evenodd" d="M18.2802 0.38381C8.47305 7.50822 1.99074 17.9974 0.0270957 29.9186C-0.153334 31.0141 0.586416 32.0482 1.678 32.2291C2.77058 32.41 3.80302 31.6683 3.98345 30.5739C5.80275 19.5229 11.9543 9.94433 20.6328 3.63899C21.5289 2.98775 21.7294 1.7305 21.0798 0.83204C20.4303 -0.0664296 19.1763 -0.26742 18.2802 0.38381" fill="#0A0708"/>
<path fill-rule="evenodd" clip-rule="evenodd" d="M89.9721 29.9186C88.0085 17.9984 81.5262 7.50922 71.719 0.383815C70.8229 -0.267425 69.5689 -0.0664253 68.9194 0.832045C68.2698 1.73151 68.4703 2.98775 69.3664 3.63899C78.0449 9.94433 84.1965 19.5229 86.0158 30.5739C86.1962 31.6693 87.2286 32.41 88.3212 32.2291C89.4128 32.0482 90.1525 31.0141 89.9721 29.9186Z" fill="#0A0708"/>
<path d="M64.632 10.2026C71.6235 15.2819 76.5792 23.0002 78.0457 31.9025" stroke="#0A0708" stroke-width="4.01472" stroke-linecap="round"/>
</g>
<path fill-rule="evenodd" clip-rule="evenodd" d="M35.821 71.2832H54.1801C54.1801 76.3667 50.0705 80.4868 45.0006 80.4868C39.9307 80.4868 35.821 76.3667 35.821 71.2832H35.821ZM45.0006 70.0718H20.9649C13.8341 70.0718 10.1855 66.0571 11.2723 61.1973C12.574 55.3906 23.0899 54.562 23.0899 35.7383C23.0899 25.1841 30.5137 16.374 40.4091 14.2573V11.4688C40.4091 8.9258 42.4647 6.86525 45.0006 6.86525C47.5364 6.86525 49.5921 8.9258 49.5921 11.4688V14.2573C59.4875 16.374 66.9112 25.1841 66.9112 35.7383C66.9112 54.562 77.4271 55.3906 78.7271 61.1973C79.8156 66.0571 76.1671 70.0718 69.0362 70.0718H45.0006ZM86.0174 30.5732C84.1975 19.5215 78.046 9.94337 69.3673 3.6377C68.4712 2.9878 68.2701 1.7295 68.9201 0.829587C69.3049 0.301267 69.8994 0.0131766 70.5061 0.000976562H70.5875C70.981 0.00829656 71.3762 0.132817 71.7194 0.382327C81.5264 7.50831 88.009 17.9961 89.9728 29.918C90.153 31.0132 89.4129 32.0464 88.3227 32.2266C88.2117 32.2456 88.1008 32.2544 87.9934 32.2544C87.0279 32.2544 86.1786 31.5576 86.0174 30.5732V30.5732ZM1.67847 32.2266C0.586492 32.0464 -0.151908 31.0132 0.0266123 29.918C1.99048 17.9961 8.47302 7.50636 18.28 0.382337C18.6232 0.132827 19.0201 0.00831656 19.4136 0.000986563H19.4951C20.1017 0.0117266 20.6962 0.299327 21.081 0.829597C21.7292 1.7295 21.53 2.9878 20.6339 3.63771C11.9535 9.94337 5.802 19.5215 3.98376 30.5733C3.82257 31.5557 2.97149 32.2544 2.00781 32.2544C1.89856 32.2544 1.78937 32.2456 1.67846 32.2266L1.67847 32.2266ZM64.6319 10.2017C71.6241 15.2803 76.5796 22.9985 78.046 31.9009L64.6319 10.2017ZM25.3692 10.2017L11.9569 31.9009C13.4216 22.9985 18.3771 15.2817 25.3692 10.2017Z" fill="#222222"/>
</svg>
