<svg width="75" height="73" viewBox="0 0 75 73" fill="none" xmlns="http://www.w3.org/2000/svg">
<mask id="mask0_0_578" style="mask-type:luminance" maskUnits="userSpaceOnUse" x="0" y="0" width="76" height="73">
<path fill-rule="evenodd" clip-rule="evenodd" d="M0 0H75.0001V73.0002H0V0Z" fill="white"/>
</mask>
<g mask="url(#mask0_0_578)">
<path fill-rule="evenodd" clip-rule="evenodd" d="M54.635 57.0032V49.7148C54.635 48.5024 55.6234 47.519 56.8433 47.519C58.0633 47.519 59.0527 48.5024 59.0527 49.7148V52.6127H62.8635C64.0834 52.6127 65.0728 53.5961 65.0728 54.8085C65.0728 56.0209 64.0834 57.0032 62.8635 57.0032L54.635 57.0032Z" fill="#0A0708"/>
<path fill-rule="evenodd" clip-rule="evenodd" d="M11.3125 73.0002C5.06489 73.0002 0 67.9665 0 61.7585V15.6202C0 9.41113 5.06489 4.37846 11.3115 4.37846H15.6235V2.36979C15.6235 1.06136 16.6914 0 18.008 0C19.3245 0 20.3914 1.06135 20.3914 2.36979V4.37846H34.9359V2.36979C34.9359 1.06136 36.0038 0 37.3204 0C38.6369 0 39.7049 1.06135 39.7049 2.36979V4.37846H54.2493V2.36979C54.2493 1.06136 55.3163 0 56.6338 0C57.9504 0 59.0173 1.06135 59.0173 2.36979V4.37846H63.6886C69.9362 4.37846 75.0001 9.41113 75.0001 15.6202V28.9286C75.0001 30.237 73.9332 31.2984 72.6156 31.2984C71.2991 31.2984 70.2321 30.237 70.2321 28.9286V15.6202C70.2321 12.028 67.3021 9.11703 63.6886 9.11703H59.0173V11.1267C59.0173 12.4351 57.9504 13.4955 56.6338 13.4955C55.3163 13.4955 54.2493 12.4351 54.2493 11.1267V9.11703H39.7049V11.1267C39.7049 12.4351 38.6369 13.4955 37.3204 13.4955C36.0038 13.4955 34.9359 12.4351 34.9359 11.1267V9.11703H20.3914V11.1267C20.3914 12.4351 19.3245 13.4955 18.0079 13.4955C16.6914 13.4955 15.6235 12.4351 15.6235 11.1267V9.11703H11.3125C7.69798 9.11703 4.76896 12.028 4.76896 15.6202V61.7585C4.76896 65.3507 7.69798 68.2616 11.3125 68.2616H33.0295C34.3461 68.2616 35.414 69.323 35.414 70.6314C35.414 71.9398 34.3461 73.0002 33.0295 73.0002L11.3125 73.0002ZM59.3706 72.0239C48.3722 73.1162 39.1654 63.9662 40.2635 53.0376C41.0768 44.9459 47.6615 38.4027 55.8024 37.5925C66.8008 36.4981 76.0107 45.6481 74.9105 56.5798C74.0972 64.6714 67.5125 71.2156 59.3706 72.0239M59.3122 41.7619C50.666 40.6695 43.3616 47.9299 44.4608 56.5227C45.2106 62.3797 49.9695 67.1093 55.8638 67.8535C64.51 68.9459 71.8134 61.6855 70.7142 53.0926C69.9644 47.2357 65.2055 42.5061 59.3122 41.7618M28.5685 52.7375C28.5685 51.4301 29.6355 50.3687 30.952 50.3687H30.954C32.2696 50.3687 33.3375 51.43 33.3375 52.7375C33.3375 54.0459 32.2696 55.1063 30.954 55.1063H30.952C29.6355 55.1063 28.5685 54.0459 28.5685 52.7375ZM15.6235 52.7375C15.6235 51.4301 16.6904 50.3687 18.007 50.3687H18.009C19.3245 50.3687 20.3914 51.43 20.3914 52.7375C20.3914 54.0459 19.3245 55.1063 18.009 55.1063H18.007C16.6904 55.1063 15.6235 54.0459 15.6235 52.7375ZM28.5685 39.8722C28.5685 38.5638 29.6355 37.5034 30.952 37.5034H30.954C32.2696 37.5034 33.3375 38.5638 33.3375 39.8722C33.3375 41.1807 32.2696 42.241 30.954 42.241H30.952C29.6355 42.241 28.5685 41.1807 28.5685 39.8722ZM15.6235 39.8722C15.6235 38.5638 16.6904 37.5034 18.007 37.5034H18.009C19.3245 37.5034 20.3914 38.5638 20.3914 39.8722C20.3914 41.1807 19.3245 42.241 18.009 42.241H18.007C16.6904 42.241 15.6235 41.1807 15.6235 39.8722ZM54.4587 27.007C54.4587 25.6985 55.5266 24.6382 56.8422 24.6382H56.8442C58.1607 24.6382 59.2276 25.6985 59.2276 27.007C59.2276 28.3154 58.1607 29.3757 56.8442 29.3757H56.8422C55.5266 29.3757 54.4587 28.3154 54.4587 27.007ZM41.5136 27.007C41.5136 25.6985 42.5816 24.6382 43.8971 24.6382H43.8991C45.2157 24.6382 46.2826 25.6985 46.2826 27.007C46.2826 28.3154 45.2157 29.3757 43.8991 29.3757H43.8971C42.5816 29.3757 41.5136 28.3154 41.5136 27.007ZM28.5685 27.007C28.5685 25.6985 29.6355 24.6382 30.952 24.6382H30.954C32.2696 24.6382 33.3375 25.6985 33.3375 27.007C33.3375 28.3154 32.2696 29.3757 30.954 29.3757H30.952C29.6355 29.3757 28.5685 28.3154 28.5685 27.007ZM15.6235 27.007C15.6235 25.6985 16.6904 24.6382 18.007 24.6382H18.009C19.3245 24.6382 20.3914 25.6985 20.3914 27.007C20.3914 28.3154 19.3245 29.3757 18.009 29.3757H18.007C16.6904 29.3757 15.6235 28.3154 15.6235 27.007Z" fill="#0A0708"/>
</g>
<path fill-rule="evenodd" clip-rule="evenodd" d="M11.3125 73C5.06567 73 0.000976562 67.9658 0.000976562 61.7583V15.6216C0.000976562 9.41015 5.06568 4.37793 11.3125 4.37793H15.6243V2.36963C15.6243 1.06055 16.692 0 18.0082 0C19.3245 0 20.3921 1.06055 20.3921 2.36963V4.37793H34.9371V2.36963C34.9371 1.06055 36.0048 0 37.3211 0C38.6373 0 39.705 1.06055 39.705 2.36963V4.37793H54.25V2.36963C54.25 1.06055 55.3177 0 56.6339 0C57.9502 0 59.0178 1.06055 59.0178 2.36963V4.37793H63.6891C69.936 4.37793 75.0006 9.41016 75.0006 15.6216V28.9287C75.0006 30.2378 73.933 31.2983 72.6167 31.2983C71.2987 31.2983 70.2328 30.2378 70.2328 28.9287V15.6216C70.2328 12.0288 67.3017 9.11719 63.6891 9.11719H59.0178V11.1274C59.0178 12.4346 57.9502 13.4951 56.6339 13.4951C55.3177 13.4951 54.25 12.4346 54.25 11.1274V9.11719H39.705V11.1274C39.705 12.4346 38.6373 13.4951 37.3211 13.4951C36.0048 13.4951 34.9371 12.4346 34.9371 11.1274V9.11719H20.3921V11.1274C20.3921 12.4346 19.3245 13.4951 18.0082 13.4951C16.692 13.4951 15.6243 12.4346 15.6243 11.1274V9.11719H11.3125C7.69818 9.11719 4.7688 12.0288 4.7688 15.6216V61.7583C4.7688 65.3511 7.69818 68.2607 11.3125 68.2607H33.0289C34.347 68.2607 35.4147 69.3232 35.4147 70.6304C35.4147 71.9395 34.347 73 33.0289 73H11.3125ZM40.263 53.0381C41.0767 44.9458 47.6616 38.4019 55.8023 37.5918C66.1768 36.5601 74.9614 44.6416 75.0007 54.7373V54.8911C74.9971 55.4487 74.9685 56.0103 74.9112 56.5791C74.0975 64.6719 67.5127 71.2153 59.3702 72.0239C58.771 72.0825 58.1773 72.1133 57.5889 72.1133C47.3987 72.1133 39.2257 63.3696 40.263 53.0381H40.263ZM44.4622 56.522C45.2115 62.3809 49.9704 67.1094 55.8649 67.853C64.51 68.9458 71.8138 61.685 70.7139 53.0937C69.9646 47.2368 65.2057 42.5063 59.3129 41.7622C58.7317 41.6875 58.1541 41.6533 57.5872 41.6533C57.5853 41.6533 57.5853 41.6533 57.5853 41.6533C49.72 41.6533 43.4356 48.5083 44.4622 56.522V56.522ZM54.6345 57.0029V49.7134C54.6345 48.5029 55.6235 47.519 56.8431 47.519C58.0646 47.519 59.0536 48.5029 59.0536 49.7134V52.6123H62.8629C64.0844 52.6123 65.0733 53.5962 65.0733 54.8086C65.0733 56.021 64.0844 57.0029 62.8629 57.0029L54.6345 57.0029ZM30.9526 55.1055C29.6364 55.1055 28.5687 54.0449 28.5687 52.7378C28.5687 51.4307 29.6364 50.3682 30.9526 50.3682H30.9544C32.2707 50.3682 33.3383 51.4307 33.3383 52.7378C33.3383 54.0449 32.2707 55.1055 30.9544 55.1055H30.9526ZM18.0082 55.1055C16.6902 55.1055 15.6243 54.0449 15.6243 52.7378C15.6243 51.4307 16.6902 50.3682 18.0082 50.3682H18.0101C19.3245 50.3682 20.3921 51.4307 20.3921 52.7378C20.3921 54.0449 19.3245 55.1055 18.0101 55.1055H18.0082ZM30.9526 42.2397C29.6364 42.2397 28.5687 41.1792 28.5687 39.8721C28.5687 38.5649 29.6364 37.5024 30.9526 37.5024H30.9544C32.2707 37.5024 33.3383 38.5649 33.3383 39.8721C33.3383 41.1792 32.2707 42.2397 30.9544 42.2397H30.9526ZM18.0082 42.2397C16.6902 42.2397 15.6243 41.1792 15.6243 39.8721C15.6243 38.5649 16.6902 37.5024 18.0082 37.5024H18.0101C19.3245 37.5024 20.3921 38.5649 20.3921 39.8721C20.3921 41.1792 19.3245 42.2397 18.0101 42.2397H18.0082ZM56.8431 29.376C55.5269 29.376 54.4592 28.3154 54.4592 27.0083C54.4592 25.6992 55.5269 24.6387 56.8431 24.6387H56.845C58.1612 24.6387 59.2289 25.6992 59.2289 27.0083C59.2289 28.3154 58.1612 29.376 56.845 29.376H56.8431ZM43.8988 29.376C42.5825 29.376 41.5131 28.3154 41.5131 27.0083C41.5131 25.6992 42.5825 24.6387 43.8988 24.6387H43.9006C45.2169 24.6387 46.2827 25.6992 46.2827 27.0083C46.2827 28.3154 45.2169 29.376 43.9006 29.376H43.8988ZM30.9526 29.376C29.6364 29.376 28.5687 28.3154 28.5687 27.0083C28.5687 25.6992 29.6364 24.6387 30.9526 24.6387H30.9544C32.2707 24.6387 33.3383 25.6992 33.3383 27.0083C33.3383 28.3154 32.2707 29.376 30.9544 29.376H30.9526ZM18.0082 29.376C16.6902 29.376 15.6243 28.3154 15.6243 27.0083C15.6243 25.6992 16.6902 24.6387 18.0082 24.6387H18.0101C19.3245 24.6387 20.3921 25.6992 20.3921 27.0083C20.3921 28.3154 19.3245 29.376 18.0101 29.376H18.0082Z" fill="#222222"/>
</svg>
