<svg width="83" height="74" viewBox="0 0 83 74" fill="none" xmlns="http://www.w3.org/2000/svg">
<mask id="mask0_0_604" style="mask-type:luminance" maskUnits="userSpaceOnUse" x="0" y="0" width="83" height="75">
<path fill-rule="evenodd" clip-rule="evenodd" d="M0 0H82.9997V74.0004H0V0Z" fill="white"/>
</mask>
<g mask="url(#mask0_0_604)">
<path d="M2.27698 2.26123H9.58926C11.8351 2.26123 13.7864 3.79175 14.3066 5.9614L24.8869 48.8299C25.3959 50.9523 27.3057 52.4507 29.504 52.4507H72.4637" stroke="#1A1311" stroke-width="4.53826" stroke-linecap="round" stroke-linejoin="round"/>
<path d="M24.2291 43.3579H65.4734C69.5844 43.3579 73.1712 40.5863 74.1793 36.6299L80.6242 11.3528C81.1302 9.36599 79.6182 7.43652 77.5546 7.43652H15.681" stroke="#1A1311" stroke-width="4.53826" stroke-linejoin="round"/>
<path fill-rule="evenodd" clip-rule="evenodd" d="M21.7793 63.9895C23.3035 63.9895 24.5433 65.2205 24.5433 66.734C24.5433 68.2474 23.3035 69.4784 21.7793 69.4784C20.2552 69.4784 19.0154 68.2474 19.0154 66.734C19.0154 65.2205 20.2552 63.9895 21.7793 63.9895ZM21.7793 59.4673C17.7381 59.4673 14.461 62.7203 14.461 66.734C14.461 70.7467 17.7381 74.0007 21.7793 74.0007C25.8216 74.0007 29.0977 70.7467 29.0977 66.734C29.0977 62.7203 25.8216 59.4673 21.7793 59.4673Z" fill="#1A1311"/>
<path fill-rule="evenodd" clip-rule="evenodd" d="M65.5574 63.9895C67.0816 63.9895 68.3214 65.2205 68.3214 66.734C68.3214 68.2474 67.0816 69.4784 65.5574 69.4784C64.0332 69.4784 62.7934 68.2474 62.7934 66.734C62.7934 65.2205 64.0332 63.9895 65.5574 63.9895ZM65.5574 59.4673C61.5161 59.4673 58.239 62.7203 58.239 66.734C58.239 70.7467 61.5161 74.0007 65.5574 74.0007C69.5996 74.0007 72.8757 70.7467 72.8757 66.734C72.8757 62.7203 69.5996 59.4673 65.5574 59.4673Z" fill="#1A1311"/>
</g>
<path fill-rule="evenodd" clip-rule="evenodd" d="M65.4446 74C61.4542 73.939 58.2382 70.709 58.2382 66.7344C58.2382 62.7207 61.515 59.4673 65.5573 59.4673C69.5997 59.4673 72.8746 62.7207 72.8746 66.7344C72.8746 70.709 69.6605 73.939 65.6718 74L65.4446 74ZM62.7939 66.7344C62.7939 68.2476 64.0334 69.478 65.5573 69.478C67.0812 69.478 68.3207 68.2476 68.3207 66.7344C68.3207 65.2192 67.0812 63.9888 65.5573 63.9888C64.0334 63.9888 62.7939 65.2192 62.7939 66.7344ZM21.6658 74C17.6772 73.939 14.4594 70.709 14.4594 66.7344C14.4594 62.7207 17.738 59.4673 21.7785 59.4673C25.8209 59.4673 29.0959 62.7207 29.0959 66.7344C29.0959 70.709 25.8817 73.939 21.893 74L21.6658 74ZM19.0151 66.7344C19.0151 68.2476 20.2546 69.478 21.7785 69.478C23.3024 69.478 24.542 68.2476 24.542 66.7344C24.542 65.2192 23.3024 63.9888 21.7785 63.9888C20.2546 63.9888 19.0151 65.2192 19.0151 66.7344ZM29.5037 52.4502C27.3054 52.4502 25.3951 50.9531 24.8872 48.8301L15.774 11.9126L16.9456 12.7495L15.681 7.43555H77.5537C79.6178 7.43555 81.131 9.36573 80.6248 11.3511L74.1804 36.6299C73.1716 40.5864 69.5836 43.3569 65.4733 43.3569H59.746L72.4633 52.4502H29.5037ZM2.27698 2.26123H9.58893C11.8354 2.26123 13.7851 3.79199 14.3056 5.96191L15.774 11.9126L2.27698 2.26123Z" fill="#222222"/>
</svg>
