<svg width="98" height="77" viewBox="0 0 98 77" fill="none" xmlns="http://www.w3.org/2000/svg">
<mask id="mask0_0_471" style="mask-type:luminance" maskUnits="userSpaceOnUse" x="0" y="0" width="98" height="77">
<path fill-rule="evenodd" clip-rule="evenodd" d="M0 0H97.9998V76.9999H0V0Z" fill="white"/>
</mask>
<g mask="url(#mask0_0_471)">
<path fill-rule="evenodd" clip-rule="evenodd" d="M79.9208 5.0206C80.3258 5.0206 80.8299 5.27765 80.9809 5.84197L83.4532 15.107C80.4478 19.3715 79.4257 24.8208 80.7939 29.9469C82.1621 35.0739 85.7605 39.2791 90.4881 41.4641L92.9605 50.7291C93.1175 51.3175 92.7684 51.925 92.1814 52.0837L18.3687 71.9401C18.2707 71.9662 18.1757 71.9793 18.0797 71.9793C17.6746 71.9793 17.1706 71.7222 17.0195 71.1579L14.5472 61.8939C17.5526 57.6284 18.5747 52.1801 17.2066 47.053C15.8384 41.926 12.2399 37.7208 7.5123 35.5358L5.03998 26.2718C4.88296 25.6824 5.232 25.0749 5.81908 24.9172L79.6317 5.05975C79.7297 5.03364 79.8247 5.02059 79.9208 5.02059M79.9208 0C79.3977 0 78.8666 0.06828 78.3376 0.20986L4.52492 20.0673C1.26949 20.9429 -0.662764 24.3027 0.209356 27.5711L3.35377 39.3525C7.60533 40.4761 11.1578 43.7836 12.3769 48.3524C13.5961 52.9211 12.1669 57.5692 9.04452 60.6759L12.1889 72.4573C12.92 75.1945 15.3853 76.9999 18.0797 76.9999C18.6028 76.9999 19.1338 76.9316 19.6629 76.79L93.4755 56.9326C96.731 56.057 98.6632 52.6972 97.7911 49.4288L94.6467 37.6474C90.3951 36.5238 86.8437 33.2163 85.6235 28.6475C84.4044 24.0788 85.8335 19.4307 88.956 16.324L85.8115 4.54264C85.0805 1.80541 82.6151 0 79.9208 0" fill="#0A0708"/>
</g>
</svg>
