<svg width="300" height="407" viewBox="0 0 300 407" fill="none" xmlns="http://www.w3.org/2000/svg">
<path fill-rule="evenodd" clip-rule="evenodd" d="M97.1019 406.253L40.652 382.047L70.5084 322.023L96.2287 334.475L79.4638 367.679L82.1436 368.829C96.651 375.048 103.349 391.804 97.1019 406.253Z" fill="black"/>
<path fill-rule="evenodd" clip-rule="evenodd" d="M240.079 393.804L210.576 336.199L236.431 324.022L253.84 356.163L260.184 353.259C274.537 346.691 291.517 352.959 298.112 367.253V367.253L240.079 393.804Z" fill="black"/>
<path fill-rule="evenodd" clip-rule="evenodd" d="M299.582 227.227L279.356 207.084C257.435 228.921 227.091 240.566 198.191 238.24C175.532 236.415 156.473 226.303 144.516 209.764L121.306 226.406C136.367 247.242 158.994 260.821 185.729 265.343V270.707C181.547 272.975 175.94 275.203 168.912 277.377C161.878 279.554 153.52 280.641 143.826 280.641C134.322 280.641 125.726 279.036 118.031 275.815C110.334 272.6 103.728 268.106 98.2189 262.331C92.7043 256.562 88.4794 249.748 85.5354 241.89C82.5857 234.038 81.1151 225.382 81.1151 215.914C81.1151 206.643 82.5857 198.031 85.5354 190.081C88.4794 182.132 92.7043 175.275 98.2189 169.5C103.728 163.728 110.334 159.234 118.031 156.016C125.726 152.798 134.322 151.187 143.826 151.187C155.229 151.187 164.73 152.798 172.333 156.016C179.93 159.234 186.771 163.962 192.854 170.21L224.21 136.144C213.951 126.682 202.02 120.011 188.437 116.129C174.849 112.25 159.977 110.308 143.826 110.308C128.049 110.308 113.513 112.771 100.215 117.688C86.9112 122.614 75.4138 129.662 65.7231 138.841C56.0323 148.024 48.4785 159.137 43.0616 172.198C37.6446 185.256 34.939 199.833 34.939 215.914C34.939 232.004 37.6446 246.576 43.0616 259.634C48.4785 272.695 56.0323 283.813 65.7231 292.99C75.4138 302.172 86.9112 309.22 100.215 314.14C113.513 319.06 128.049 321.52 143.826 321.52C158.65 321.52 173.186 320.004 187.438 316.978C201.692 313.954 215.372 309.031 228.487 302.218V264.805C254.71 259.891 279.904 246.822 299.582 227.227V227.227Z" fill="#FFAF00"/>
<path fill-rule="evenodd" clip-rule="evenodd" d="M176.345 212.505C183.811 212.505 189.864 205.444 189.864 196.734C189.864 188.023 183.811 180.962 176.345 180.962C168.879 180.962 162.826 188.023 162.826 196.734C162.826 205.444 168.879 212.505 176.345 212.505Z" fill="black"/>
<path fill-rule="evenodd" clip-rule="evenodd" d="M241.797 212.505C249.263 212.505 255.316 205.444 255.316 196.734C255.316 188.023 249.263 180.962 241.797 180.962C234.331 180.962 228.278 188.023 228.278 196.734C228.278 205.444 234.331 212.505 241.797 212.505Z" fill="black"/>
<path fill-rule="evenodd" clip-rule="evenodd" d="M254.541 22.7337C256.765 23.1195 258.864 21.7233 259.23 19.6152C259.595 17.5072 258.089 15.4855 255.865 15.0997C253.641 14.714 251.542 16.1102 251.176 18.2182C250.81 20.3263 252.317 22.3479 254.541 22.7337Z" fill="#FFAF00"/>
<path fill-rule="evenodd" clip-rule="evenodd" d="M252.064 36.2727C254.288 36.6585 256.387 35.2623 256.753 33.1542C257.118 31.0462 255.612 29.0245 253.388 28.6387C251.164 28.253 249.065 29.6492 248.699 31.7572C248.333 33.8653 249.84 35.8869 252.064 36.2727Z" fill="#FFAF00"/>
<path fill-rule="evenodd" clip-rule="evenodd" d="M249.586 49.8117C251.81 50.1975 253.909 48.8013 254.275 46.6932C254.64 44.5852 253.134 42.5635 250.91 42.1777C248.686 41.792 246.587 43.1882 246.221 45.2962C245.855 47.4043 247.362 49.4259 249.586 49.8117Z" fill="#FFAF00"/>
<path fill-rule="evenodd" clip-rule="evenodd" d="M247.109 63.3507C249.333 63.7365 251.432 62.3403 251.798 60.2322C252.163 58.1242 250.657 56.1025 248.433 55.7168C246.209 55.331 244.11 56.7272 243.744 58.8352C243.378 60.9433 244.885 62.9649 247.109 63.3507Z" fill="#FFAF00"/>
<path fill-rule="evenodd" clip-rule="evenodd" d="M244.631 76.8897C246.855 77.2755 248.954 75.8793 249.32 73.7712C249.685 71.6632 248.179 69.6415 245.955 69.2558C243.731 68.87 241.632 70.2662 241.266 72.3742C240.9 74.4823 242.407 76.5039 244.631 76.8897Z" fill="#FFAF00"/>
<path fill-rule="evenodd" clip-rule="evenodd" d="M7.94986 55.5821C9.82949 54.3325 10.393 51.8751 9.20849 50.0934C8.02398 48.3116 5.54 47.8802 3.66037 49.1298C1.78073 50.3794 1.21722 52.8368 2.40174 54.6185C3.58625 56.4003 6.07023 56.8317 7.94986 55.5821Z" fill="#FFAF00"/>
<path fill-rule="evenodd" clip-rule="evenodd" d="M15.9759 67.0261C17.8555 65.7765 18.419 63.3191 17.2345 61.5374C16.05 59.7556 13.566 59.3242 11.6864 60.5738C9.80673 61.8234 9.24323 64.2808 10.4277 66.0625C11.6122 67.8443 14.0962 68.2757 15.9759 67.0261Z" fill="#FFAF00"/>
<path fill-rule="evenodd" clip-rule="evenodd" d="M24.0009 78.4691C25.8805 77.2195 26.444 74.7621 25.2595 72.9804C24.075 71.1986 21.591 70.7672 19.7114 72.0168C17.8317 73.2664 17.2682 75.7238 18.4527 77.5055C19.6372 79.2873 22.1212 79.7187 24.0009 78.4691Z" fill="#FFAF00"/>
<path fill-rule="evenodd" clip-rule="evenodd" d="M32.0258 89.9121C33.9055 88.6625 34.469 86.2051 33.2845 84.4234C32.1 82.6416 29.616 82.2103 27.7364 83.4599C25.8567 84.7094 25.2932 87.1668 26.4777 88.9486C27.6622 90.7303 30.1462 91.1617 32.0258 89.9121Z" fill="#FFAF00"/>
<path fill-rule="evenodd" clip-rule="evenodd" d="M40.0518 101.355C41.9315 100.105 42.495 97.6481 41.3105 95.8664C40.126 94.0846 37.642 93.6532 35.7624 94.9028C33.8827 96.1524 33.3192 98.6098 34.5037 100.392C35.6882 102.173 38.1722 102.605 40.0518 101.355Z" fill="#FFAF00"/>
</svg>
