<svg width="164" height="63" viewBox="0 0 164 63" fill="none" xmlns="http://www.w3.org/2000/svg">
<mask id="mask0_0_817" style="mask-type:luminance" maskUnits="userSpaceOnUse" x="0" y="0" width="164" height="63">
<path fill-rule="evenodd" clip-rule="evenodd" d="M0 0.134766H163.463V62.3262H0V0.134766Z" fill="white"/>
</mask>
<g mask="url(#mask0_0_817)">
<path fill-rule="evenodd" clip-rule="evenodd" d="M0 45.375V26.1768H1.7853V33.904C2.53293 32.9876 3.36938 32.3022 4.29507 31.8479C5.22118 31.3945 6.23612 31.1672 7.34072 31.1672C9.3024 31.1672 10.9778 31.8782 12.3666 33.2998C13.7557 34.7214 14.4495 36.4463 14.4495 38.4747C14.4495 40.4783 13.749 42.1881 12.3476 43.6051C10.9458 45.0229 9.25988 45.7313 7.28936 45.7313C6.15992 45.7313 5.13614 45.4897 4.21887 45.0056C3.3016 44.522 2.4904 43.7967 1.78529 42.8289V45.375H0ZM7.14202 44.0127C8.13423 44.0127 9.05066 43.7689 9.89048 43.2807C10.7303 42.7928 11.3984 42.1074 11.8947 41.2246C12.3906 40.3421 12.6389 39.4084 12.6389 38.4238C12.6389 37.4393 12.3885 36.5014 11.8879 35.6105C11.3878 34.7193 10.7152 34.0255 9.87113 33.5288C9.0271 33.0325 8.12583 32.7838 7.16772 32.7838C6.19193 32.7838 5.2654 33.0325 4.38727 33.5288C3.50915 34.0255 2.83477 34.6936 2.36413 35.534C1.89307 36.374 1.65776 37.3208 1.65776 38.373C1.65776 39.9769 2.18564 41.3183 3.24184 42.3961C4.29803 43.4739 5.59796 44.0127 7.14204 44.0127" fill="black"/>
<path fill-rule="evenodd" clip-rule="evenodd" d="M28.3396 40.7799L29.8445 41.5695C29.3507 42.5372 28.7807 43.318 28.1341 43.9117C27.4871 44.5059 26.7593 44.9576 25.951 45.2677C25.1424 45.5774 24.2272 45.7325 23.2064 45.7325C20.9424 45.7325 19.1727 44.9917 17.8959 43.5108C16.6196 42.03 15.981 40.3555 15.981 38.4885C15.981 36.7316 16.5211 35.1654 17.6021 33.7909C18.9723 32.042 20.8065 31.168 23.1045 31.168C25.4699 31.168 27.3591 32.0639 28.7715 33.8544C29.7759 35.1188 30.2865 36.698 30.3038 38.5906H17.8176C17.8517 40.1992 18.3666 41.5178 19.3626 42.5469C20.3586 43.576 21.589 44.0899 23.0531 44.0899C23.7595 44.0899 24.4469 43.9672 25.115 43.7222C25.7831 43.4772 26.3514 43.1516 26.8199 42.7457C27.288 42.3401 27.7948 41.685 28.3396 40.7799M28.3396 37.0497C28.1013 36.0996 27.754 35.3398 27.2985 34.7708C26.843 34.2023 26.2406 33.7443 25.4918 33.3959C24.7424 33.048 23.9552 32.8736 23.1297 32.8736C21.7671 32.8736 20.5968 33.3114 19.6181 34.1855C18.9029 34.8221 18.3619 35.7768 17.9961 37.0497H28.3396Z" fill="black"/>
<path fill-rule="evenodd" clip-rule="evenodd" d="M50.0703 31.5243V45.3758H48.3103V42.9953C47.5618 43.9033 46.7224 44.5866 45.7917 45.0451C44.8605 45.5031 43.8422 45.7321 42.7368 45.7321C40.7726 45.7321 39.0955 45.0215 37.7054 43.5999C36.315 42.1784 35.62 40.4492 35.62 38.4116C35.62 36.4173 36.3213 34.7116 37.7248 33.2942C39.1274 31.8764 40.8151 31.168 42.7877 31.168C43.9268 31.168 44.9578 31.41 45.8805 31.8937C46.8028 32.3773 47.6127 33.103 48.3103 34.0704V31.5243H50.0703ZM42.9346 32.8866C41.9411 32.8866 41.0235 33.1308 40.1828 33.6178C39.3421 34.1052 38.6732 34.7902 38.1761 35.6718C37.6798 36.5534 37.4314 37.4859 37.4314 38.4696C37.4314 39.444 37.6819 40.3769 38.1824 41.2669C38.6838 42.1569 39.3569 42.8499 40.2017 43.3457C41.0466 43.842 41.9534 44.0899 42.9216 44.0899C43.8982 44.0899 44.8239 43.8441 45.6987 43.3524C46.5734 42.8608 47.2465 42.1952 47.718 41.356C48.1891 40.5168 48.4248 39.5714 48.4248 38.52C48.4248 36.9181 47.8965 35.5785 46.839 34.5015C45.7816 33.4253 44.4804 32.8866 42.9346 32.8866Z" fill="black"/>
<path fill-rule="evenodd" clip-rule="evenodd" d="M65.0107 31.5243H66.7964V42.562C66.7964 44.5059 66.6264 45.9275 66.2862 46.8272C65.8185 48.1004 65.0061 49.0808 63.8484 49.7678C62.69 50.4557 61.2978 50.799 59.6742 50.799C58.4837 50.799 57.4145 50.6309 56.4669 50.2952C55.5185 49.9586 54.7468 49.5073 54.152 48.9417C53.5564 48.3752 53.0078 47.5474 52.5065 46.4578H54.445C54.9729 47.3747 55.654 48.0534 56.4884 48.495C57.3223 48.9362 58.357 49.1568 59.5908 49.1568C60.8083 49.1568 61.8363 48.9308 62.6761 48.4782C63.5163 48.0252 64.1153 47.4566 64.4732 46.7717C64.831 46.0863 65.0107 44.9803 65.0107 43.4533V42.7406C64.3372 43.5894 63.5138 44.2408 62.5426 44.695C61.5706 45.1488 60.541 45.3758 59.4519 45.3758C58.1752 45.3758 56.975 45.0598 55.8514 44.4273C54.7279 43.7949 53.8599 42.944 53.247 41.875C52.6345 40.8055 52.328 39.6298 52.328 38.3481C52.328 37.0669 52.6467 35.8718 53.2853 34.7641C53.9239 33.6569 54.8066 32.7807 55.9344 32.1353C57.0626 31.4907 58.2518 31.168 59.5024 31.168C60.541 31.168 61.5092 31.3823 62.4079 31.8109C63.3079 32.2391 64.1751 32.9459 65.0107 33.9309V31.5243ZM59.7378 32.8866C58.7258 32.8866 57.7866 33.1308 56.9194 33.6187C56.0518 34.1069 55.3716 34.7818 54.879 35.6428C54.3857 36.5047 54.139 37.4359 54.139 38.4372C54.139 39.9567 54.6492 41.2127 55.6696 42.2057C56.6896 43.1991 58.0118 43.6953 59.6359 43.6953C61.2768 43.6953 62.5982 43.2028 63.5988 42.2183C64.599 41.2342 65.1004 39.9395 65.1004 38.3355C65.1004 37.2913 64.8701 36.3601 64.41 35.5411C63.9499 34.7221 63.2986 34.075 62.455 33.5997C61.6127 33.1245 60.7072 32.8866 59.7377 32.8866" fill="black"/>
<path fill-rule="evenodd" clip-rule="evenodd" d="M70.7193 25.8203C71.126 25.8203 71.4728 25.9649 71.7612 26.2527C72.0487 26.5414 72.1927 26.8893 72.1927 27.2969C72.1927 27.6957 72.0487 28.0399 71.7612 28.3281C71.4728 28.6168 71.126 28.761 70.7193 28.761C70.3219 28.761 69.9784 28.6168 69.6913 28.3281C69.4034 28.0399 69.259 27.6957 69.259 27.2969C69.259 26.8893 69.4034 26.5414 69.6913 26.2527C69.9784 25.9649 70.3219 25.8203 70.7193 25.8203ZM69.8332 31.5239H71.6185V45.3753H69.8332V31.5239Z" fill="black"/>
<path fill-rule="evenodd" clip-rule="evenodd" d="M74.5391 26.1768H76.3248V45.3754H74.5391V26.1768Z" fill="black"/>
<path fill-rule="evenodd" clip-rule="evenodd" d="M90.6746 40.7799L92.1795 41.5695C91.6853 42.5372 91.1162 43.318 90.4683 43.9117C89.8226 44.5059 89.0947 44.9576 88.2856 45.2677C87.4774 45.5774 86.5618 45.7325 85.5414 45.7325C83.2779 45.7325 81.5077 44.9917 80.231 43.5108C78.9546 42.03 78.316 40.3555 78.316 38.4885C78.316 36.7316 78.8557 35.1654 79.9371 33.7909C81.3069 32.042 83.1415 31.168 85.4395 31.168C87.8049 31.168 89.6937 32.0639 91.1065 33.8544C92.1105 35.1188 92.6215 36.698 92.6384 38.5906H80.1531C80.1859 40.1992 80.7012 41.5178 81.698 42.5469C82.6936 43.576 83.9236 44.0899 85.3877 44.0899C86.0937 44.0899 86.7815 43.9672 87.45 43.7222C88.1185 43.4772 88.686 43.1516 89.1549 42.7457C89.623 42.3401 90.129 41.685 90.6746 40.7799M90.6746 37.0497C90.4359 36.0996 90.089 35.3398 89.634 34.7708C89.1776 34.2023 88.5761 33.7443 87.8264 33.3959C87.0779 33.048 86.2899 32.8736 85.4639 32.8736C84.1021 32.8736 82.931 33.3114 81.9523 34.1855C81.2375 34.8221 80.6966 35.7768 80.3312 37.0497H90.6746Z" fill="black"/>
<path fill-rule="evenodd" clip-rule="evenodd" d="M129.917 40.6471C130.805 40.6471 131.506 40.3698 132 39.8235C132.123 39.6861 132.224 39.5382 132.311 39.3869C132.397 39.5382 132.499 39.6861 132.622 39.8235C133.116 40.3698 133.816 40.6471 134.705 40.6471C136.818 40.6471 137.497 39.3243 137.56 38.6267C137.582 38.3944 137.411 38.1897 137.177 38.1679C136.946 38.1477 136.739 38.317 136.719 38.5498C136.714 38.6003 136.583 39.8025 134.705 39.8025C134.067 39.8025 133.579 39.621 133.253 39.2625C132.822 38.7868 132.742 38.0977 132.733 37.717C132.734 37.6607 132.718 37.4422 132.719 37.4401C132.721 37.4262 132.717 37.4136 132.717 37.3989C132.981 37.2358 133.012 36.8997 133.175 36.6354C133.397 36.2757 134.139 36.0782 134.139 36.0782C134.621 36.0139 135.003 35.6924 135.003 35.2167C135.003 34.7402 134.657 34.4377 134.139 34.3549C134.139 34.3549 133.412 34.2246 132.215 34.2246C131.129 34.2246 130.483 34.3549 130.483 34.3549C129.926 34.4377 129.619 34.7402 129.619 35.2167C129.619 35.6924 129.964 35.971 130.483 36.0782C130.483 36.0782 131.233 36.2757 131.447 36.6354C131.564 36.832 131.694 37.1354 131.901 37.3258C131.895 37.3627 131.89 37.4001 131.894 37.4401C131.894 37.4422 131.887 37.6565 131.888 37.7082C131.88 38.0851 131.802 38.7826 131.368 39.2625C131.043 39.621 130.555 39.8025 129.917 39.8025C128.099 39.8025 127.917 38.6742 127.902 38.5498C127.882 38.317 127.68 38.1477 127.443 38.1679C127.211 38.1897 127.04 38.3944 127.062 38.6267C127.125 39.3243 127.804 40.6471 129.917 40.6471" fill="black"/>
<path fill-rule="evenodd" clip-rule="evenodd" d="M154.815 9.7446C155.764 5.65089 155.905 3.11281 154.798 2.51653C154.156 2.17028 151.681 3.50739 149.16 5.07604C144.302 1.95134 138.52 0.134766 132.311 0.134766C126.104 0.134766 120.328 1.95723 115.472 5.08277C112.947 3.51118 110.467 2.16986 109.823 2.51653C108.716 3.11281 108.858 5.65173 109.807 9.7467C104.456 15.3301 101.16 22.8926 101.16 31.2305C101.16 48.4041 115.107 62.3262 132.311 62.3262C149.515 62.3262 163.462 48.4041 163.462 31.2305C163.462 22.8922 160.167 15.328 154.815 9.7446M150.001 19.9885C148.726 17.3101 146.714 14.9825 144.196 13.2034C145.914 11.2754 152.448 6.13161 153.655 5.46599C155.22 4.60371 150.376 18.888 150.001 19.9885M123.128 27.3612C124.641 27.3612 125.867 26.1678 125.867 24.6978C125.867 24.3848 125.809 24.0856 125.707 23.807C127.995 25.3946 127.506 27.8242 127.506 27.8242C127.506 27.8242 125.707 30.5762 122.382 29.7211C119.06 28.8647 118.779 24.1675 118.779 24.1675C118.779 24.1675 119.681 23.5255 120.921 23.1254C120.589 23.5662 120.39 24.1087 120.39 24.6978C120.39 26.1677 121.616 27.3612 123.128 27.3612ZM122.34 24.6978C122.34 24.2621 122.694 23.9108 123.128 23.9108C123.564 23.9108 123.917 24.2621 123.917 24.6978C123.917 25.1311 123.564 25.4849 123.128 25.4849C122.694 25.4849 122.34 25.1311 122.34 24.6978ZM125.488 43.6234C125.508 43.6137 125.523 43.6011 125.531 43.5809C125.576 43.4704 125.191 43.2115 125.191 43.2115L125.204 43.2128C123.088 41.6194 121.76 39.3242 121.76 36.7722C121.76 32.8651 124.874 30.4241 129.163 29.6437C130.082 23.1183 132.254 12.6201 135.258 29.6105C139.65 30.3509 142.861 32.8046 142.861 36.7722C142.861 39.417 141.433 41.7849 139.181 43.3834C139.119 43.4452 139.074 43.5086 139.09 43.5506C139.114 43.6091 139.19 43.6162 139.262 43.6086C143.283 42.2472 146.721 39.7511 149.089 36.6508C149.125 36.6163 149.171 36.5877 149.219 36.6024C149.262 36.6155 149.267 36.689 149.263 36.7537C147.519 44.2646 142.986 56.194 131.981 56.3196C120.618 56.4499 116.673 43.9772 115.327 36.5003C115.326 36.4402 115.334 36.3802 115.372 36.3684C115.422 36.3533 115.469 36.3839 115.507 36.4192C117.849 39.7015 121.348 42.253 125.488 43.6234M141.018 27.3616C142.529 27.3616 143.755 26.1677 143.755 24.6978C143.755 23.9129 143.404 23.2095 142.849 22.7216C144.508 23.0296 145.842 23.9814 145.842 23.9814C145.842 23.9814 145.645 28.6781 142.322 29.5349C138.997 30.39 137.116 27.6389 137.116 27.6389C137.116 27.6389 136.714 25.6324 138.357 24.0747C138.307 24.2747 138.278 24.4827 138.278 24.6978C138.278 26.1677 139.505 27.3616 141.018 27.3616ZM140.229 24.6978C140.229 24.2629 140.581 23.9116 141.018 23.9116C141.451 23.9116 141.806 24.2629 141.806 24.6978C141.806 25.1315 141.451 25.4853 141.018 25.4853C140.581 25.4853 140.229 25.1315 140.229 24.6978ZM132.311 1.96984C137.848 1.96984 143.022 3.51034 147.439 6.17448C145.265 7.59312 143.375 8.93233 143.02 9.17479C142.559 9.48995 141.842 9.98664 141.186 10.1077C140.63 10.2106 140.237 10.1459 139.509 9.93201C137.273 9.16302 134.848 8.73777 132.311 8.73777C129.774 8.73777 127.348 9.16302 125.113 9.93201C124.385 10.1459 123.991 10.2106 123.435 10.1077C122.779 9.98664 122.063 9.48995 121.601 9.17479C121.247 8.93233 119.361 7.59605 117.19 6.1791C121.605 3.51369 126.774 1.96984 132.311 1.96984ZM110.967 5.466C112.174 6.13162 118.707 11.2754 120.426 13.2034C117.907 14.9825 115.895 17.3101 114.62 19.9885C114.245 18.888 109.402 4.60373 110.967 5.46601M102.998 31.2305C102.998 23.8091 105.775 17.0412 110.337 11.8831C111.04 14.5707 111.994 17.7677 113.114 21.4034C112.531 23.0897 112.217 24.8815 112.217 26.7397C112.217 28.0217 112.373 29.2698 112.658 30.4758C109.319 30.5098 106.675 31.6553 106.5 31.733C106.333 31.807 106.258 32.002 106.332 32.168C106.406 32.3348 106.603 32.4087 106.769 32.336C106.811 32.3171 109.497 31.154 112.834 31.1536C113.028 31.8427 113.263 32.5176 113.543 33.1723C109.387 33.1811 106.005 35.146 105.812 35.2599C105.656 35.3527 105.604 35.5549 105.696 35.712C105.759 35.8154 105.868 35.8734 105.981 35.8734C106.039 35.8734 106.096 35.8583 106.149 35.8267C106.194 35.8007 109.546 33.8585 113.588 33.8484C113.624 34.3564 113.673 34.88 113.746 35.4309C110.381 36.0944 107.924 37.7971 107.764 37.9089C107.616 38.0144 107.58 38.2207 107.685 38.369C107.75 38.4598 107.852 38.5081 107.955 38.5081C108.022 38.5081 108.088 38.4884 108.146 38.448C108.183 38.4211 110.585 36.7571 113.851 36.1012C113.952 36.7222 114.069 37.358 114.229 38.0173C114.229 38.0173 114.548 38.3379 114.229 39.828C113.908 41.3177 113.801 42.3829 113.801 43.8742C113.801 45.3643 111.989 49.516 112.522 52.6037C112.538 52.6953 112.564 52.7895 112.597 52.8857C106.7 47.533 102.998 39.8133 102.998 31.2305M152.025 52.8857C152.058 52.7899 152.084 52.6953 152.1 52.6037C152.633 49.516 150.821 45.3643 150.821 43.8742C150.821 42.3829 150.714 41.3177 150.393 39.828C150.074 38.3379 150.393 38.0173 150.393 38.0173C150.552 37.358 150.67 36.7222 150.77 36.1011C154.037 36.7571 156.438 38.4211 156.475 38.448C156.534 38.4884 156.6 38.5081 156.666 38.5081C156.77 38.5081 156.872 38.4598 156.936 38.369C157.041 38.2207 157.007 38.0144 156.857 37.9089C156.699 37.7971 154.241 36.0944 150.875 35.4309C150.949 34.88 150.997 34.3564 151.033 33.8484C155.075 33.8585 158.427 35.8007 158.473 35.8267C158.525 35.8582 158.583 35.8734 158.641 35.8734C158.753 35.8734 158.863 35.8154 158.925 35.712C159.018 35.5549 158.966 35.3527 158.809 35.2599C158.617 35.146 155.235 33.1807 151.079 33.1723C151.359 32.5176 151.594 31.8427 151.788 31.1536C155.125 31.154 157.812 32.3171 157.853 32.336C158.02 32.4087 158.215 32.3348 158.29 32.1679C158.364 32.002 158.288 31.807 158.122 31.733C157.947 31.6553 155.303 30.5098 151.963 30.4753C152.249 29.2697 152.405 28.0217 152.405 26.7396C152.405 24.8815 152.09 23.0897 151.507 21.4034C152.627 17.7694 153.581 14.5732 154.284 11.886C158.847 17.0428 161.624 23.8091 161.624 31.2305C161.624 39.8133 157.922 47.533 152.025 52.8857" fill="black"/>
</g>
<path fill-rule="evenodd" clip-rule="evenodd" d="M101.159 31.2305C101.159 22.8916 104.457 15.331 109.807 9.74804C108.858 5.65038 108.717 3.11425 109.824 2.51562C110.467 2.17089 112.948 3.51171 115.473 5.08203C120.329 1.95801 126.105 0.133789 132.311 0.133789C138.52 0.133789 144.303 1.9502 149.16 5.07617C151.682 3.50586 154.155 2.1709 154.8 2.51562C155.904 3.11425 155.763 5.65039 154.814 9.74511C160.168 15.3281 163.462 22.8916 163.462 31.2305C163.462 48.4053 149.516 62.3271 132.311 62.3271C115.108 62.3271 101.159 48.4053 101.159 31.2305H101.159ZM115.373 36.3691C115.335 36.3799 115.326 36.4404 115.326 36.501C116.673 43.9766 120.619 56.4492 131.982 56.3193C142.987 56.1953 147.521 44.2637 149.262 36.7549C149.268 36.6885 149.262 36.6143 149.218 36.6035C149.171 36.5869 149.124 36.6172 149.088 36.6504C146.721 39.7519 143.282 42.249 139.262 43.6094C139.19 43.6152 139.113 43.6094 139.091 43.5518C139.074 43.5078 139.118 43.4443 139.182 43.3838C141.434 41.7851 142.863 39.418 142.863 36.7715C142.863 32.8037 139.651 30.3506 135.258 29.6103C132.256 12.6211 130.084 23.1182 129.165 29.6436C124.874 30.4248 121.761 32.8643 121.761 36.7715C121.761 39.3242 123.089 41.6201 125.202 43.2119H125.191C125.191 43.2119 125.575 43.4717 125.531 43.582C125.522 43.6016 125.509 43.6123 125.489 43.623C121.347 42.252 117.848 39.7021 115.508 36.418C115.475 36.3906 115.439 36.3662 115.401 36.3662C115.39 36.3662 115.381 36.3662 115.373 36.3691L115.373 36.3691ZM150.394 38.0185C150.394 38.0185 150.073 38.3389 150.394 39.8291C150.714 41.3164 150.821 42.3818 150.821 43.874C150.821 45.3642 152.634 49.5146 152.099 52.6025C152.085 52.6963 152.057 52.79 152.024 52.8867C157.924 47.5332 161.625 39.8125 161.625 31.2305C161.625 23.8105 158.849 17.0439 154.284 11.8867C153.581 14.5742 152.629 17.7695 151.508 21.4043C152.091 23.0898 152.405 24.8808 152.405 26.7383C152.405 28.0215 152.251 29.2685 151.964 30.4746C155.303 30.5107 157.946 31.6553 158.123 31.7324C158.288 31.8076 158.363 32.0029 158.291 32.1689C158.217 32.334 158.021 32.4092 157.855 32.3369C157.814 32.3174 155.126 31.1533 151.787 31.1533C151.594 31.8428 151.359 32.5166 151.081 33.1709C155.236 33.1816 158.617 35.1465 158.81 35.2598C158.967 35.3535 159.02 35.5547 158.926 35.7119C158.862 35.8144 158.755 35.875 158.642 35.875C158.584 35.875 158.526 35.8584 158.473 35.8281C158.426 35.8008 155.076 33.8574 151.034 33.8496C150.998 34.3574 150.948 34.8789 150.876 35.4307C154.243 36.0957 156.699 37.7978 156.856 37.9082C157.008 38.0137 157.041 38.2207 156.936 38.3691C156.873 38.458 156.771 38.5078 156.666 38.5078C156.6 38.5078 156.533 38.4883 156.475 38.4492C156.437 38.4219 154.039 36.7578 150.772 36.1016C150.67 36.7217 150.554 37.3564 150.394 38.0185L150.394 38.0185ZM102.997 31.2305C102.997 39.8125 106.7 47.5332 112.597 52.8867C112.564 52.79 112.539 52.6963 112.523 52.6025C111.99 49.5146 113.8 45.3643 113.8 43.874C113.8 42.3818 113.908 41.3164 114.228 39.8291C114.548 38.3389 114.228 38.0185 114.228 38.0185C114.071 37.3564 113.952 36.7217 113.853 36.1015C110.586 36.7578 108.185 38.4219 108.146 38.4492C108.088 38.4883 108.022 38.5078 107.956 38.5078C107.854 38.5078 107.749 38.458 107.685 38.3691C107.58 38.2207 107.616 38.0137 107.765 37.9082C107.923 37.7978 110.381 36.0957 113.748 35.4306C113.673 34.8789 113.624 34.3574 113.588 33.8496C109.545 33.8574 106.195 35.8008 106.151 35.8281C106.096 35.8584 106.038 35.875 105.983 35.875C105.87 35.875 105.759 35.8144 105.696 35.7119C105.605 35.5547 105.657 35.3535 105.812 35.2598C106.005 35.1465 109.388 33.1816 113.544 33.1709C113.262 32.5166 113.028 31.8428 112.834 31.1533C109.496 31.1533 106.811 32.3174 106.769 32.3369C106.604 32.4092 106.405 32.334 106.333 32.1689C106.259 32.0029 106.333 31.8076 106.501 31.7324C106.675 31.6553 109.319 30.5107 112.658 30.4746C112.374 29.2685 112.216 28.0215 112.216 26.7383C112.216 24.8808 112.531 23.0898 113.116 21.4043C111.996 17.7676 111.041 14.5693 110.337 11.8838C105.776 17.041 102.997 23.8105 102.997 31.2305ZM118.778 24.166C118.778 24.166 119.06 28.8633 122.382 29.7217C125.707 30.5762 127.507 27.8252 127.507 27.8252C127.507 27.8252 127.995 25.3945 125.707 23.8076C125.809 24.0859 125.867 24.3848 125.867 24.6963C125.867 26.167 124.642 27.3623 123.13 27.3623C121.615 27.3623 120.39 26.167 120.39 24.6963C120.39 24.1084 120.589 23.5674 120.922 23.126C119.681 23.5264 118.778 24.166 118.778 24.166ZM137.115 27.6377C137.115 27.6377 138.997 30.3887 142.322 29.5361C145.645 28.6777 145.843 23.9814 145.843 23.9814C145.843 23.9814 144.508 23.0293 142.849 22.7207C143.404 23.209 143.754 23.9121 143.754 24.6963C143.754 26.167 142.529 27.3623 141.02 27.3623C139.505 27.3623 138.277 26.167 138.277 24.6963C138.277 24.4834 138.307 24.2744 138.357 24.0752C136.715 25.6318 137.115 27.6377 137.115 27.6377V27.6377ZM140.23 24.6963C140.23 25.1318 140.581 25.4853 141.02 25.4853C141.453 25.4853 141.806 25.1318 141.806 24.6963C141.806 24.2627 141.453 23.9121 141.02 23.9121C140.581 23.9121 140.23 24.2627 140.23 24.6963ZM122.341 24.6963C122.341 25.1318 122.694 25.4853 123.13 25.4853C123.566 25.4853 123.916 25.1318 123.916 24.6963C123.916 24.2627 123.566 23.9101 123.13 23.9101C122.694 23.9101 122.341 24.2627 122.341 24.6963ZM153.655 5.46581C152.449 6.13085 145.915 11.2744 144.196 13.2031C146.715 14.9824 148.727 17.3115 150.002 19.9883C150.366 18.9209 154.941 5.42675 153.777 5.42968C153.741 5.42968 153.702 5.44042 153.655 5.46581ZM114.62 19.9883C115.895 17.3115 117.906 14.9824 120.426 13.2031C118.707 11.2744 112.175 6.13084 110.966 5.46581C110.922 5.44042 110.881 5.42968 110.845 5.42968C109.683 5.42968 114.256 18.9209 114.62 19.9883ZM139.51 9.93261C140.236 10.1455 140.631 10.209 141.188 10.1074C141.842 9.98827 142.559 9.4912 143.02 9.17382C143.376 8.93163 145.264 7.59277 147.438 6.1748C143.023 3.51171 137.849 1.96972 132.311 1.96972C126.775 1.96972 121.604 3.51464 117.189 6.17773C119.361 7.5957 121.248 8.93164 121.601 9.17382C122.065 9.4912 122.78 9.98827 123.436 10.1074C123.991 10.209 124.386 10.1455 125.114 9.93261C127.349 9.16308 129.775 8.73827 132.311 8.73827C134.847 8.73827 137.272 9.16307 139.51 9.93261H139.51ZM56.4669 50.2959C55.5204 49.959 54.7477 49.5068 54.1517 48.9404C53.5584 48.375 53.0093 47.5469 52.5071 46.457H54.447C54.974 47.373 55.6556 48.0527 56.489 48.4941C57.3223 48.9355 58.3571 49.1562 59.5906 49.1562C60.8075 49.1562 61.8368 48.9297 62.6757 48.4775C63.5173 48.0244 64.1161 47.456 64.4721 46.7695C64.8308 46.0849 65.013 44.9785 65.013 43.4521V42.7402C64.3369 43.5879 63.5146 44.2412 62.5432 44.6943C61.5719 45.1494 60.5426 45.376 59.4526 45.376C58.175 45.376 56.9746 45.0586 55.8515 44.4268C54.7284 43.7949 53.862 42.9443 53.2466 41.874C52.634 40.8057 52.3277 39.6309 52.3277 38.3476C52.3277 37.0674 52.6478 35.8721 53.2852 34.7627C53.9254 33.6562 54.8085 32.7812 55.9343 32.1357C57.063 31.4902 58.2523 31.167 59.5023 31.167C60.5426 31.167 61.5084 31.3828 62.408 31.8105C63.3076 32.2383 64.1768 32.9443 65.013 33.9297V31.5234H66.7983V42.5605C66.7983 44.5068 66.6273 45.9277 66.2878 46.8271C65.8187 48.0996 65.0074 49.0791 63.8485 49.7656C62.6895 50.4561 61.2987 50.7978 59.6734 50.7978C58.4841 50.7978 57.4134 50.6299 56.4669 50.2959L56.4669 50.2959ZM56.9195 33.6172C56.053 34.1064 55.3714 34.7822 54.8802 35.6426C54.3862 36.5039 54.1407 37.4365 54.1407 38.4355C54.1407 39.956 54.6512 41.2119 55.6694 42.2051C56.6904 43.1982 58.0122 43.6953 59.6375 43.6953C61.2766 43.6953 62.5984 43.2012 63.6001 42.2187C64.599 41.2334 65.1013 39.9394 65.1013 38.3359C65.1013 37.29 64.8695 36.3603 64.4114 35.541C63.9506 34.7217 63.2993 34.0732 62.4549 33.5986C61.6133 33.124 60.7082 32.8867 59.7396 32.8867C58.7269 32.8867 57.7887 33.1318 56.9195 33.6172L56.9195 33.6172ZM80.2314 43.5098C78.9538 42.0283 78.3163 40.3535 78.3163 38.4883C78.3163 36.7305 78.8544 35.166 79.9361 33.791C81.3076 32.042 83.1399 31.167 85.4385 31.167C87.8061 31.167 89.6936 32.0644 91.1064 33.8545C92.1109 35.1191 92.6214 36.6973 92.638 38.5898H80.1541C80.1845 40.1992 80.7005 41.5176 81.6967 42.5469C82.6928 43.5762 83.9235 44.0898 85.3888 44.0898C86.0925 44.0898 86.7796 43.9658 87.4501 43.7226C88.1179 43.4775 88.6864 43.1514 89.1555 42.7461C89.6218 42.3398 90.1296 41.6836 90.6732 40.7783L92.1798 41.5703C91.6859 42.5361 91.1175 43.3174 90.469 43.9101C89.8233 44.5068 89.0948 44.956 88.2863 45.2656C87.4777 45.5771 86.5616 45.7314 85.5406 45.7314C83.2778 45.7314 81.509 44.9922 80.2314 43.5098H80.2314ZM81.9533 34.1855C81.2358 34.8203 80.695 35.7754 80.3307 37.0478H90.6732C90.4359 36.0986 90.0882 35.3398 89.6329 34.7715C89.1776 34.2002 88.576 33.7441 87.8254 33.3965C87.0777 33.0488 86.2884 32.8721 85.4634 32.8721C84.1002 32.8721 82.9302 33.3115 81.9533 34.1855H81.9533ZM37.7053 43.5986C36.3145 42.1777 35.6191 40.4473 35.6191 38.4111C35.6191 36.416 36.3201 34.7099 37.7246 33.2949C39.1264 31.876 40.8152 31.167 42.7882 31.167C43.9251 31.167 44.9572 31.4101 45.8816 31.8926C46.8032 32.376 47.6118 33.1015 48.3099 34.0703V31.5234H50.0705V45.376H48.3099V42.9941C47.5621 43.9023 46.7205 44.5869 45.7905 45.0449C44.8606 45.5029 43.8423 45.7314 42.7358 45.7314C40.771 45.7314 39.0961 45.0224 37.7053 43.5986H37.7053ZM40.1833 33.6172C39.3417 34.1035 38.6739 34.79 38.1744 35.6709C37.6805 36.5537 37.4321 37.4863 37.4321 38.4687C37.4321 39.4424 37.6805 40.3779 38.1827 41.2666C38.6849 42.1553 39.3555 42.8506 40.2026 43.3447C41.047 43.8418 41.9521 44.0898 42.9207 44.0898C43.8976 44.0898 44.8247 43.8437 45.6995 43.3506C46.5742 42.8594 47.2475 42.1943 47.7194 41.3555C48.1885 40.5166 48.4258 39.5723 48.4258 38.5185C48.4258 36.918 47.896 35.5771 46.8391 34.501C45.7823 33.4248 44.4798 32.8867 42.9345 32.8867C41.9411 32.8867 41.0222 33.1318 40.1833 33.6172H40.1833ZM17.8979 43.5098C16.6202 42.0283 15.98 40.3535 15.98 38.4883C15.98 36.7305 16.5209 35.166 17.6026 33.791C18.9741 32.042 20.8063 31.167 23.105 31.167C25.4698 31.167 27.3601 32.0644 28.7729 33.8545C29.7774 35.1191 30.2879 36.6973 30.3044 38.5898H17.8178C17.8537 40.1992 18.367 41.5176 19.3632 42.5469C20.3593 43.5762 21.59 44.0898 23.0525 44.0898C23.759 44.0898 24.4488 43.9658 25.1166 43.7226C25.7844 43.4775 26.3529 43.1514 26.8192 42.7461C27.2883 42.3398 27.7961 41.6836 28.3397 40.7783L29.8463 41.5703C29.3496 42.5361 28.7812 43.3174 28.1355 43.9101C27.487 44.5068 26.7585 44.956 25.9528 45.2656C25.1415 45.5771 24.2281 45.7314 23.2071 45.7314C20.9443 45.7314 19.1728 44.9922 17.8979 43.5098ZM19.617 34.1855C18.9051 34.8203 18.3614 35.7754 17.9972 37.0478H28.3397C28.1024 36.0986 27.7547 35.3398 27.2994 34.7715C26.8441 34.2002 26.2425 33.7441 25.4919 33.3965C24.7441 33.0488 23.9549 32.8721 23.1298 32.8721C21.7666 32.8721 20.5966 33.3115 19.617 34.1855H19.617ZM4.21921 45.0058C3.30033 44.5205 2.49179 43.7969 1.78537 42.8291V45.376H0V26.1777H1.78537V33.9043C2.53317 32.9883 3.36929 32.3037 4.2937 31.8486C5.22089 31.3935 6.23639 31.167 7.34018 31.167C9.30216 31.167 10.9771 31.8789 12.3679 33.2998C13.7559 34.7217 14.4486 36.4463 14.4486 38.4746C14.4486 40.4775 13.7504 42.1885 12.3486 43.6064C10.9468 45.0225 9.26074 45.7314 7.29049 45.7314C6.15911 45.7314 5.13534 45.4912 4.2192 45.0058H4.21921ZM4.38754 33.5293C3.51004 34.0264 2.83395 34.6933 2.36483 35.5351C1.89297 36.374 1.65841 37.3203 1.65841 38.3721C1.65841 39.9756 2.18548 41.3193 3.24236 42.3955C4.29921 43.4746 5.59893 44.0127 7.14147 44.0127C8.13488 44.0127 9.05102 43.7695 9.88991 43.2812C10.7315 42.793 11.3993 42.1084 11.8933 41.2256C12.39 40.3428 12.6383 39.4101 12.6383 38.4248C12.6383 37.4394 12.39 36.501 11.8877 35.6123C11.3883 34.7188 10.715 34.0264 9.8706 33.5293C9.02618 33.0322 8.12661 32.7842 7.16906 32.7842C6.19222 32.7842 5.26504 33.0322 4.38754 33.5293ZM74.5386 45.376V26.1777H76.324V45.376H74.5386ZM69.8337 45.376V31.5234H71.6191V45.376H69.8337ZM132.623 39.8232C132.498 39.6855 132.396 39.539 132.311 39.3877C132.225 39.539 132.123 39.6855 131.999 39.8232C131.505 40.3701 130.804 40.6484 129.916 40.6484C127.805 40.6484 127.126 39.3242 127.062 38.626C127.04 38.3945 127.211 38.1904 127.443 38.168C127.68 38.1484 127.882 38.3174 127.904 38.5517C127.918 38.6758 128.1 39.8017 129.916 39.8017C130.553 39.8017 131.044 39.6221 131.367 39.2637C131.803 38.7832 131.88 38.0849 131.889 37.7099C131.886 37.6572 131.894 37.4424 131.894 37.4394C131.889 37.4004 131.894 37.3623 131.902 37.3262C131.695 37.1357 131.563 36.832 131.447 36.6367C131.232 36.2773 130.481 36.0791 130.481 36.0791C129.962 35.9717 129.62 35.6924 129.62 35.2178C129.62 34.7402 129.927 34.4375 130.481 34.3545C130.481 34.3545 131.127 34.2246 132.214 34.2246C133.412 34.2246 134.138 34.3545 134.138 34.3545C134.656 34.4375 135.004 34.7402 135.004 35.2178C135.004 35.6924 134.62 36.0156 134.138 36.0791C134.138 36.0791 133.395 36.2773 133.174 36.6367C133.012 36.8984 132.981 37.2353 132.716 37.3984C132.716 37.415 132.719 37.4258 132.719 37.4394C132.716 37.4424 132.733 37.6601 132.733 37.7178C132.741 38.0986 132.821 38.7861 133.255 39.2637C133.58 39.6221 134.069 39.8018 134.706 39.8018C136.582 39.8018 136.715 38.6016 136.718 38.5518C136.74 38.3174 136.944 38.1484 137.178 38.168C137.41 38.1904 137.581 38.3945 137.559 38.626C137.496 39.3242 136.817 40.6484 134.706 40.6484C133.815 40.6484 133.117 40.3701 132.623 39.8232L132.623 39.8232ZM69.6902 28.3281C69.4033 28.041 69.2598 27.6953 69.2598 27.2988C69.2598 26.8896 69.4033 26.542 69.6902 26.2529C69.9772 25.9658 70.3222 25.8193 70.7195 25.8193C71.1252 25.8193 71.4729 25.9658 71.7598 26.2529C72.0496 26.542 72.1931 26.8896 72.1931 27.2988C72.1931 27.6953 72.0496 28.041 71.7598 28.3281C71.4729 28.6172 71.1252 28.7607 70.7195 28.7607C70.3222 28.7607 69.9772 28.6172 69.6902 28.3281Z" fill="black"/>
</svg>
