<svg width="80" height="79" viewBox="0 0 80 79" fill="none" xmlns="http://www.w3.org/2000/svg">
<mask id="mask0_0_487" style="mask-type:luminance" maskUnits="userSpaceOnUse" x="0" y="0" width="80" height="80">
<path fill-rule="evenodd" clip-rule="evenodd" d="M0 0H79.9998V79.0003H0V0Z" fill="white"/>
</mask>
<g mask="url(#mask0_0_487)">
<path fill-rule="evenodd" clip-rule="evenodd" d="M8.75195 68.6318C8.75195 68.0032 9.26153 67.4937 9.89013 67.4937H70.1116C70.7396 67.4937 71.2488 68.0028 71.2488 68.6308V75.3538C71.2488 75.9818 70.7396 76.491 70.1116 76.491H9.89013C9.26153 76.491 8.75195 75.9814 8.75195 75.3528V68.6318Z" stroke="#0A0708" stroke-width="5.03174"/>
<path fill-rule="evenodd" clip-rule="evenodd" d="M73.4591 44.6992H67.2192C51.9468 44.6992 48.2089 34.6348 48.2089 32.2607C48.2089 29.8867 47.9799 27.8198 50.9127 21.4967L50.9006 21.4896C52.0124 19.6165 52.6591 17.4392 52.6591 15.1073C52.6591 8.14976 46.9912 2.51025 39.9997 2.51025C33.0072 2.51025 27.3393 8.14976 27.3393 15.1073C27.3393 17.4392 27.989 19.6165 29.0978 21.4896L29.0877 21.4967C32.0195 27.8198 31.7905 29.8867 31.7905 32.2607C31.7905 34.6348 28.0526 44.6992 12.7802 44.6992H6.54036C4.32184 44.6992 2.521 46.49 2.521 48.6984V63.4938C2.521 65.7033 4.32184 67.4931 6.54036 67.4931H73.4591C75.6776 67.4931 77.4774 65.7033 77.4774 63.4938V48.6984C77.4774 46.49 75.6776 44.6992 73.4591 44.6992Z" stroke="#0A0708" stroke-width="5.03174"/>
</g>
<path fill-rule="evenodd" clip-rule="evenodd" d="M9.89063 76.4902C9.2616 76.4902 8.7522 75.9809 8.7522 75.3521V68.6323C8.7522 68.0034 9.2616 67.4922 9.89063 67.4922H6.54114C4.32141 67.4922 2.521 65.7021 2.521 63.4927V48.6982C2.521 46.4888 4.32142 44.6987 6.54114 44.6987H12.7809C28.0538 44.6987 31.7914 34.6328 31.7914 32.2588C31.7914 29.8867 32.0201 27.8193 29.0883 21.4946L29.0986 21.4897C27.9896 19.6167 27.3399 17.4385 27.3399 15.106C27.3399 8.14893 33.0078 2.50879 39.9998 2.50879C46.9916 2.50879 52.6596 8.14893 52.6596 15.106C52.6596 17.4385 52.0132 19.6167 50.9008 21.4897L50.9128 21.4946C47.9793 27.8193 48.2097 29.8867 48.2097 32.2588C48.2097 34.6328 51.9474 44.6987 67.2185 44.6987H73.4584C75.6781 44.6987 77.4767 46.4888 77.4767 48.6982V63.4927C77.4767 65.7021 75.6781 67.4922 73.4584 67.4922H70.1123C70.7395 67.4922 71.249 68.0034 71.249 68.6304V75.3535C71.249 75.9809 70.7395 76.4902 70.1123 76.4902L9.89063 76.4902Z" fill="#222222"/>
</svg>
