<svg width="173" height="146" viewBox="0 0 173 146" fill="none" xmlns="http://www.w3.org/2000/svg">
<path d="M98.2294 113.977C91.1251 131.015 74.2395 142.999 54.5415 142.999C28.4304 142.999 7.26404 121.944 7.26404 95.9714C7.26404 69.9996 28.4304 48.9441 54.5415 48.9441C59.0195 48.9441 63.3535 49.5635 67.4592 50.7211" stroke="#302D2C" stroke-width="4.31356" stroke-linecap="round"/>
<path fill-rule="evenodd" clip-rule="evenodd" d="M54.5408 102.702C58.2777 102.702 61.307 99.6883 61.307 95.9712C61.307 92.254 58.2777 89.2407 54.5408 89.2407C50.8039 89.2407 47.7746 92.254 47.7746 95.9712C47.7746 99.6883 50.8039 102.702 54.5408 102.702Z" fill="#49A7B1"/>
<path d="M29.834 119.131L54.5406 95.9711L29.834 81.5649" stroke="#49A7B1" stroke-width="4.31356" stroke-linecap="round"/>
<path d="M54.541 48.9441V57.3441" stroke="#302D2C" stroke-width="4.30214" stroke-linecap="round"/>
<path d="M54.541 134.625V143.025" stroke="#302D2C" stroke-width="4.30214" stroke-linecap="round"/>
<path d="M30.902 55.2439L35.102 62.5439" stroke="#302D2C" stroke-width="4.31356" stroke-linecap="round"/>
<path d="M73.9703 129.446L78.1703 136.746" stroke="#302D2C" stroke-width="4.31356" stroke-linecap="round"/>
<path d="M13.597 72.458L20.897 76.658" stroke="#302D2C" stroke-width="4.31356" stroke-linecap="round"/>
<path d="M88.1937 115.299L95.4937 119.499" stroke="#302D2C" stroke-width="4.31356" stroke-linecap="round"/>
<path d="M7.26303 95.9709H15.663" stroke="#302D2C" stroke-width="4.32502" stroke-linecap="round"/>
<path d="M13.597 119.498L20.897 115.298" stroke="#302D2C" stroke-width="4.31356" stroke-linecap="round"/>
<path d="M30.902 136.746L35.102 129.446" stroke="#302D2C" stroke-width="4.31356" stroke-linecap="round"/>
<path d="M81.4935 45.738L71.217 62.3853C65.1338 72.2402 78.2406 91.2457 100.491 104.836C122.742 118.426 145.711 121.456 151.794 111.601L162.071 94.9534" stroke="#302D2C" stroke-width="4.31356" stroke-linecap="round"/>
<path d="M150.042 65.7657C161.171 76.6481 166.333 88.0487 162.07 94.9541C155.987 104.809 133.018 101.781 110.767 88.1899C88.5166 74.599 75.4098 55.5937 81.493 45.7387C85.6118 39.0674 97.4714 38.301 111.608 42.7202" stroke="#302D2C" stroke-width="4.31356" stroke-linecap="round"/>
<path fill-rule="evenodd" clip-rule="evenodd" d="M152.872 42.017C158.573 32.7824 162.831 34.9134 167.284 27.6999C172.894 18.6124 169.196 10.6945 161.505 5.99609C153.813 1.29876 145.041 1.59991 139.431 10.6874C134.978 17.901 138.816 20.7144 133.115 29.9499C130.215 34.6484 113.389 39.6238 107.407 49.3146C104.042 54.7654 110.209 64.6173 121.181 71.3186C132.153 78.0199 143.775 79.0343 147.139 73.5836C153.122 63.8918 149.972 46.7153 152.872 42.017V42.017Z" stroke="#302D2C" stroke-width="4.31356" stroke-linecap="round"/>
<path d="M15.8873 26.2151L23.8873 40.1151" stroke="#FFAF00" stroke-width="4.31356" stroke-linecap="round"/>
<path d="M3.01199 38.0823L12.612 47.8823" stroke="#FFAF00" stroke-width="4.31356" stroke-linecap="round"/>
<path d="M33.0066 20.9138L36.4066 34.9138" stroke="#FFAF00" stroke-width="4.31356" stroke-linecap="round"/>
</svg>
