<svg width="176" height="152" viewBox="0 0 176 152" fill="none" xmlns="http://www.w3.org/2000/svg">
<path d="M35.2936 21.544V12.738C35.2936 7.36097 39.6526 3.00098 45.0307 3.00098H102.308C107.686 3.00098 112.045 7.36097 112.045 12.738V139.13C112.045 144.508 107.686 148.868 102.308 148.868H45.0307C39.6526 148.868 35.2936 144.508 35.2936 139.13V103.534" stroke="#302D2C" stroke-width="4.3" stroke-linecap="round"/>
<path fill-rule="evenodd" clip-rule="evenodd" d="M35.2933 65.5257C40.5559 65.5257 44.8221 61.2595 44.8221 55.9969C44.8221 50.7342 40.5559 46.468 35.2933 46.468C30.0306 46.468 25.7644 50.7342 25.7644 55.9969C25.7644 61.2595 30.0306 65.5257 35.2933 65.5257Z" stroke="#49A7B1" stroke-width="4.3" stroke-linecap="round"/>
<path fill-rule="evenodd" clip-rule="evenodd" d="M18.9946 112.719C20.7561 112.719 22.1841 111.291 22.1841 109.529C22.1841 107.768 20.7561 106.34 18.9946 106.34C17.233 106.34 15.8051 107.768 15.8051 109.529C15.8051 111.291 17.233 112.719 18.9946 112.719Z" fill="#FFAF00"/>
<path fill-rule="evenodd" clip-rule="evenodd" d="M18.9946 124.885C20.7561 124.885 22.1841 123.457 22.1841 121.695C22.1841 119.934 20.7561 118.506 18.9946 118.506C17.233 118.506 15.8051 119.934 15.8051 121.695C15.8051 123.457 17.233 124.885 18.9946 124.885Z" fill="#FFAF00"/>
<path fill-rule="evenodd" clip-rule="evenodd" d="M18.9946 137.051C20.7561 137.051 22.1841 135.623 22.1841 133.862C22.1841 132.1 20.7561 130.672 18.9946 130.672C17.233 130.672 15.8051 132.1 15.8051 133.862C15.8051 135.623 17.233 137.051 18.9946 137.051Z" fill="#FFAF00"/>
<path d="M14.4986 86.2859C18.2606 78.5989 26.1585 73.3059 35.2935 73.3059C44.3505 73.3059 52.1926 78.5099 55.9915 86.0919" stroke="#49A7B1" stroke-width="4.3" stroke-linecap="round"/>
<path d="M65.8561 14.6746H81.4561" stroke="#302D2C" stroke-width="4.3" stroke-linecap="round"/>
<path d="M50.1371 109.529H97.2371" stroke="#302D2C" stroke-width="4.3" stroke-linecap="round"/>
<path d="M50.1371 119.579H70.8371" stroke="#302D2C" stroke-width="4.3" stroke-linecap="round"/>
<path d="M50.1371 129.63H85.8371" stroke="#302D2C" stroke-width="4.3" stroke-linecap="round"/>
<path d="M119.745 122.593C122.883 124.699 126.454 126.207 130.295 126.962V135.448H141.58V126.962C145.422 126.207 148.993 124.699 152.13 122.593L158.131 128.593L166.11 120.614L160.11 114.613C162.216 111.476 163.724 107.905 164.479 104.063H172.966V92.7781H164.479C163.724 88.937 162.216 85.3661 160.11 82.228L166.11 76.228L158.131 68.248L152.13 74.249C148.993 72.1431 145.422 70.634 141.58 69.879V61.3931H130.295V69.879C126.454 70.634 122.883 72.1431 119.745 74.249" stroke="#FFAF00" stroke-width="4.3" stroke-linecap="round" stroke-linejoin="round"/>
<path fill-rule="evenodd" clip-rule="evenodd" d="M135.937 110.201C142.443 110.201 147.717 104.927 147.717 98.4208C147.717 91.9149 142.443 86.6409 135.937 86.6409C129.432 86.6409 124.157 91.9149 124.157 98.4208C124.157 104.927 129.432 110.201 135.937 110.201Z" stroke="#FFAF00" stroke-width="4.3" stroke-linecap="round" stroke-linejoin="round"/>
<path fill-rule="evenodd" clip-rule="evenodd" d="M35.2932 94.5738C53.1283 94.5738 67.5865 80.1156 67.5865 62.2805C67.5865 44.4455 53.1283 29.9873 35.2932 29.9873C17.4582 29.9873 3 44.4455 3 62.2805C3 80.1156 17.4582 94.5738 35.2932 94.5738Z" stroke="#302D2C" stroke-width="4.3" stroke-linecap="round"/>
</svg>
