<svg width="145" height="145" viewBox="0 0 145 145" fill="none" xmlns="http://www.w3.org/2000/svg">
<path d="M131.156 36.8475C132.34 37.3459 133.296 38.0009 133.817 38.9524C135.867 42.6949 130.212 49.7961 131.515 53.9637C132.78 58.0075 141.497 60.6017 141.971 64.9751C142.445 69.3476 134.486 73.7481 134.116 77.9699C133.735 82.3192 140.779 88.0451 139.579 92.1392C138.357 96.3047 129.32 97.3205 127.332 101.121C125.329 104.95 129.644 112.948 126.944 116.302C124.245 119.657 115.509 117.154 112.198 119.931C108.913 122.687 109.855 131.732 106.048 133.817C102.306 135.866 95.2045 130.211 91.037 131.515C86.9931 132.78 84.399 141.497 80.0264 141.97C75.6531 142.444 71.2525 134.485 67.0307 134.116C62.6814 133.735 56.9556 140.779 52.8614 139.578C48.696 138.357 47.6802 129.32 43.8794 127.332C40.0505 125.329 32.0531 129.643 28.6984 126.944C25.3437 124.244 27.8465 115.51 25.0694 112.198C22.3135 108.912 13.2682 109.854 11.1834 106.047C9.13492 102.306 14.7893 95.2036 13.4861 91.037C12.2204 86.9932 3.50357 84.3981 3.0303 80.0255C2.55703 75.653 10.5153 71.2515 10.885 67.0308C11.2668 62.6814 4.22183 56.9546 5.42239 52.8615C6.64322 48.6959 15.6805 47.6792 17.6689 43.8794C19.6722 40.0495 15.3579 32.0531 18.0566 28.6974C20.7563 25.3427 29.4911 27.8454 32.8026 25.0684C36.089 22.3125 35.1465 13.2682 38.9533 11.1834C42.6949 9.13387 49.7971 14.7894 53.9637 13.4852C58.0076 12.2204 60.6027 3.50356 64.9751 3.02932C69.3476 2.55611 73.7492 10.5153 77.9699 10.885C82.3192 11.2658 88.046 4.22194 92.1392 5.42153C94.5585 6.13082 95.9148 9.47549 97.3726 12.5459" stroke="#302D2C" stroke-width="4.32021" stroke-linecap="round"/>
<path fill-rule="evenodd" clip-rule="evenodd" d="M30.2813 80.7579C30.641 83.8776 33.21 84.8109 35.9689 84.4924C37.7733 84.2844 40.473 83.4415 40.1957 81.0443C39.9033 78.5165 36.3416 78.4954 32.786 77.9729C29.2003 77.4554 25.5321 76.516 25.0248 72.1155C24.4701 67.321 28.734 64.4989 32.9708 64.0095C37.8628 63.4448 42.6079 65.0594 43.2338 70.4778L38.2415 71.0546C37.7532 68.2495 35.6664 67.7591 33.205 68.0444C31.5623 68.2334 29.7357 69.1426 29.9638 71.1138C30.1727 72.9193 31.3152 73.0196 37.3686 73.8516C39.1247 74.0807 44.5038 74.5588 45.1177 79.8778C45.615 84.179 42.6049 87.7877 36.2351 88.5233C31.0468 89.1221 25.8908 87.1217 25.289 81.3356L30.2813 80.7579Z" fill="#489EA7"/>
<path fill-rule="evenodd" clip-rule="evenodd" d="M55.951 61.9229L61.2386 61.312L72.7144 83.7439L67.3604 84.3618L64.9852 79.3463L56.2172 80.3591L54.9814 85.7925L49.76 86.3953L55.951 61.9229ZM57.1195 76.3615L63.1948 75.6592L59.2474 67.3984L59.1812 67.4065L57.1195 76.3615Z" fill="#489EA7"/>
<path fill-rule="evenodd" clip-rule="evenodd" d="M75.3209 59.6855L80.4772 59.0889L82.6843 78.2002L94.1108 76.882L94.6102 81.2155L78.0277 83.1293L75.3209 59.6855Z" fill="#489EA7"/>
<path fill-rule="evenodd" clip-rule="evenodd" d="M98.0719 57.0585L115.607 55.033L116.107 59.3662L103.729 60.7949L104.309 65.8195L115.67 64.5083L116.133 68.5151L104.772 69.8262L105.435 75.573L118.078 74.1143L118.577 78.4475L100.78 80.5021L98.0719 57.0585Z" fill="#489EA7"/>
<path d="M28.3931 96.9416C37.9266 114.096 57.0823 124.786 77.8193 122.539C98.5564 120.293 114.979 105.749 120.617 86.9509" stroke="#302D2C" stroke-width="4.32021" stroke-linecap="round"/>
<path d="M87.9111 24.6271C81.3626 22.5011 74.2693 21.6924 66.9801 22.482C46.2432 24.7285 29.8203 39.2726 24.182 58.0705" stroke="#302D2C" stroke-width="4.32021" stroke-linecap="round"/>
<path fill-rule="evenodd" clip-rule="evenodd" d="M109.482 15.5361C100.601 15.5361 93.376 22.7609 93.376 31.6414C93.376 40.522 100.601 47.7477 109.482 47.7477C118.362 47.7477 125.587 40.522 125.587 31.6414C125.587 22.7609 118.362 15.5361 109.482 15.5361Z" fill="#FFAF00"/>
<path fill-rule="evenodd" clip-rule="evenodd" d="M111.532 41.1295H107.739V29.0077H103.041V26.1513C105.684 26.2046 108.114 25.2953 108.514 22.439H111.532V41.1295Z" fill="white"/>
</svg>
